<?xml version="1.0" encoding="UTF-8" standalone="no"?>
<!-- Created with Inkscape (http://www.inkscape.org/) -->

<svg
   width="12.700001mm"
   height="12.700001mm"
   viewBox="0 0 12.700001 12.700001"
   version="1.1"
   id="svg1"
   xmlns="http://www.w3.org/2000/svg"
   xmlns:svg="http://www.w3.org/2000/svg"
   xmlns:rdf="http://www.w3.org/1999/02/22-rdf-syntax-ns#"
   xmlns:cc="http://creativecommons.org/ns#"
   xmlns:dc="http://purl.org/dc/elements/1.1/">
  <defs
     id="defs1" />
  <metadata
     id="metadata1">
    <rdf:RDF>
      <cc:Work
         rdf:about="">
        <dc:format>image/svg+xml</dc:format>
        <dc:type
           rdf:resource="http://purl.org/dc/dcmitype/StillImage" />
      </cc:Work>
    </rdf:RDF>
  </metadata>
  <g
     id="g4"
     transform="translate(-0.09449404,-2.2206101)"
     style="fill:#ffffff;fill-opacity:1;stroke:#000000;stroke-width:0.3;stroke-dasharray:none;stroke-opacity:0">
    <path
       id="rect3-0-0-0-9-4"
       style="stroke-width:0.310412"
       transform="rotate(62.44706)"
       d="m 9.3912268,-5.6810999 h 6.6165522 c 0.159089,0 0.287165,0.1280755 0.287165,0.2871647 v 0.9797385 c 0,0.1590892 -0.128076,0.2871647 -0.287165,0.2871647 H 9.3912268 c -0.1590893,0 -0.2871647,-0.1280755 -0.2871647,-0.2871647 v -0.9797385 c 0,-0.1590892 0.1280754,-0.2871647 0.2871647,-0.2871647 z M 5.0633053,1.7481974 8.1239107,-4.1179308 c 0.07359,-0.1410459 0.2463827,-0.195352 0.3874287,-0.1217623 l 0.8686203,0.4531956 c 0.1410459,0.07359 0.1953519,0.2463829 0.1217623,0.3874288 L 6.4411167,2.4670595 C 6.3675271,2.6081054 6.1947339,2.6624115 6.053688,2.5888219 L 5.1850677,2.1356262 C 5.0440217,2.0620366 4.9897157,1.8892434 5.0633053,1.7481974 Z m 1.8964383,0.426219 3.0606054,-5.8661283 c 0.07359,-0.1410459 0.246383,-0.1953519 0.387429,-0.1217623 l 0.86862,0.4531957 c 0.141046,0.07359 0.195352,0.2463827 0.121762,0.3874286 L 8.3375549,2.8932784 C 8.2639654,3.0343243 8.0911722,3.0886304 7.9501262,3.0150408 L 7.0815059,2.5618451 C 6.94046,2.4882555 6.886154,2.3154623 6.9597436,2.1744164 Z M 8.8561818,2.6006352 11.916787,-3.265493 c 0.07359,-0.141046 0.246383,-0.195352 0.387429,-0.1217624 l 0.86862,0.4531956 c 0.141046,0.073589 0.195352,0.246383 0.121763,0.3874289 L 10.233993,3.3194973 C 10.160404,3.4605432 9.98761,3.514849 9.8465643,3.4412595 L 8.9779442,2.988064 C 8.8368983,2.9144744 8.7825922,2.7416811 8.8561818,2.6006352 Z m 1.3189772,1.5330145 3.060605,-5.8661283 c 0.07359,-0.1410459 0.246382,-0.1953521 0.387428,-0.1217626 l 0.868621,0.4531959 c 0.141046,0.073589 0.195352,0.2463829 0.121763,0.3874288 L 11.55297,4.8525118 C 11.479381,4.9935577 11.306587,5.0478635 11.165541,4.974274 L 10.29692,4.5210781 C 10.155875,4.4474886 10.101569,4.2746956 10.175159,4.1336497 Z" />
  </g>
</svg>
